<svg xmlns="http://www.w3.org/2000/svg" width="2048" height="2048"><path d="M1128.652 996.916a291.932 291.932 0 00-30.568-1.6H809.04v119.89h289.044a291.77 291.77 0 0030.568-1.6c81.323 14.392 142.859 85.226 142.859 170.756 0 95.963-77.464 173.426-173.427 173.426H809.04v115.618h289.044c159.553 0 289.045-129.492 289.045-289.044 0-93.253-44.234-176.237-112.851-229.1 68.617-52.864 112.851-135.848 112.851-229.1 0-159.553-129.492-289.045-289.045-289.045H809.04v115.618h289.044c95.963 0 173.427 77.464 173.427 173.427 0 85.529-61.536 156.364-142.859 170.755zM802.56 886.031h289.044V770.413H802.56c-159.553 0-289.045 129.492-289.045 289.044 0 159.553 129.492 289.045 289.045 289.045h289.044v-115.618H802.56c-95.963 0-173.427-77.464-173.427-173.427s77.464-173.426 173.427-173.426z"/></svg>